<svg width="150" height="30" viewBox="0 0 150 30" fill="none" xmlns="http://www.w3.org/2000/svg">
<path d="M5.10117 4.04688L7.69883 12.168L10.2965 4.04688H11.9098V14H10.6588V10.124L10.775 6.24121L8.17051 14H7.21348L4.62266 6.26855L4.73887 10.124V14H3.48789V4.04688H5.10117ZM21.6346 11.4023H18.2713L17.4988 14H16.2137L19.4197 4.04688H20.493L23.7059 14H22.4207L21.6346 11.4023ZM18.5994 10.3223H21.3133L19.9529 5.79688L18.5994 10.3223ZM32.7881 5.12695H30.1699V14H28.9189V5.12695H26.3076V4.04688H32.7881V5.12695ZM41.1525 11.4023H37.7893L37.0168 14H35.7316L38.9377 4.04688H40.0109L43.2238 14H41.9387L41.1525 11.4023ZM38.1174 10.3223H40.8313L39.4709 5.79688L38.1174 10.3223ZM56.234 12.0791L58.5104 4.04688H59.8844L56.7877 14H55.6939L52.6041 4.04688H53.9713L56.234 12.0791ZM65.3436 14H64.0926V4.04688H65.3436V14ZM70.3379 14V4.04688H72.71C73.8721 4.04688 74.7744 4.41146 75.417 5.14062C76.0596 5.86523 76.3809 6.88607 76.3809 8.20312V9.87109C76.3809 11.1882 76.055 12.2067 75.4033 12.9268C74.7516 13.6423 73.806 14 72.5664 14H70.3379ZM71.5889 5.12695V12.9268H72.5938C73.4733 12.9268 74.1159 12.6761 74.5215 12.1748C74.9271 11.6689 75.1344 10.9215 75.1436 9.93262V8.16895C75.1436 7.12077 74.9408 6.35286 74.5352 5.86523C74.1341 5.37305 73.5257 5.12695 72.71 5.12695H71.5889ZM82.4416 14H81.1906V4.04688H82.4416V14ZM89.8354 9.04395L91.8725 4.04688H93.2875L90.4574 10.2881V14H89.2064V10.2881L86.3764 4.04688H87.7982L89.8354 9.04395ZM101.385 11.4023H98.0221L97.2496 14H95.9645L99.1705 4.04688H100.244L103.457 14H102.171L101.385 11.4023ZM98.3502 10.3223H101.064L99.7037 5.79688L98.3502 10.3223ZM111.958 11.4844C111.958 10.9876 111.823 10.6071 111.554 10.3428C111.286 10.0785 110.8 9.82096 110.098 9.57031C109.397 9.31966 108.859 9.05762 108.485 8.78418C108.116 8.50618 107.838 8.19173 107.651 7.84082C107.469 7.48535 107.378 7.07975 107.378 6.62402C107.378 5.83561 107.64 5.1862 108.164 4.67578C108.693 4.16536 109.383 3.91016 110.235 3.91016C110.818 3.91016 111.338 4.04232 111.794 4.30664C112.249 4.56641 112.6 4.92871 112.846 5.39355C113.093 5.8584 113.216 6.36882 113.216 6.9248H111.958C111.958 6.30957 111.81 5.83333 111.513 5.49609C111.217 5.15885 110.791 4.99023 110.235 4.99023C109.729 4.99023 109.337 5.13151 109.059 5.41406C108.781 5.69661 108.642 6.0931 108.642 6.60352C108.642 7.02279 108.793 7.3737 109.094 7.65625C109.394 7.9388 109.859 8.19173 110.488 8.41504C111.468 8.73861 112.167 9.13737 112.587 9.61133C113.011 10.0853 113.222 10.7051 113.222 11.4707C113.222 12.2773 112.96 12.9245 112.436 13.4121C111.912 13.8952 111.199 14.1367 110.297 14.1367C109.718 14.1367 109.182 14.0114 108.69 13.7607C108.203 13.5055 107.818 13.1501 107.535 12.6943C107.257 12.234 107.118 11.7077 107.118 11.1152H108.376C108.376 11.7305 108.547 12.209 108.888 12.5508C109.235 12.8926 109.704 13.0635 110.297 13.0635C110.848 13.0635 111.263 12.9222 111.541 12.6396C111.819 12.3571 111.958 11.972 111.958 11.4844ZM122.441 9.39941H118.921V12.9268H123.022V14H117.67V4.04688H122.954V5.12695H118.921V8.32617H122.441V9.39941ZM129.329 10.8623L129.459 11.9766L129.657 10.9922L131.25 4.04688H132.296L133.841 10.9922L134.039 12.0039L134.183 10.8555L135.4 4.04688H136.651L134.668 14H133.54L131.879 6.74707L131.777 6.15918L131.674 6.74707L129.951 14H128.817L126.841 4.04688H128.092L129.329 10.8623ZM145.234 11.4023H141.871L141.098 14H139.813L143.019 4.04688H144.092L147.305 14H146.02L145.234 11.4023ZM142.199 10.3223H144.913L143.552 5.79688L142.199 10.3223Z" fill="white"/>
<path d="M7.43652 21.8604H5.03418V25H4.14062V17.8906H7.8418V18.6621H5.03418V21.0938H7.43652V21.8604ZM23.5693 22.0703C23.5693 23.0404 23.3626 23.7874 22.9492 24.3115C22.5358 24.8356 21.9482 25.0977 21.1865 25.0977C20.4541 25.0977 19.8747 24.8438 19.4482 24.3359C19.0251 23.8249 18.8053 23.1038 18.7891 22.1729V20.835C18.7891 19.8844 18.999 19.1406 19.4189 18.6035C19.8389 18.0632 20.4248 17.793 21.1768 17.793C21.9255 17.793 22.5081 18.0518 22.9248 18.5693C23.3447 19.0837 23.5596 19.8193 23.5693 20.7764V22.0703ZM22.6758 20.8252C22.6758 20.0732 22.5521 19.515 22.3047 19.1504C22.0605 18.7826 21.6846 18.5986 21.1768 18.5986C20.6852 18.5986 20.3125 18.7842 20.0586 19.1553C19.8079 19.5264 19.681 20.0732 19.6777 20.7959V22.0703C19.6777 22.7962 19.8031 23.3496 20.0537 23.7305C20.3076 24.1113 20.6852 24.3018 21.1865 24.3018C21.6878 24.3018 22.0589 24.126 22.2998 23.7744C22.5407 23.4229 22.666 22.8841 22.6758 22.1582V20.8252ZM39.1895 17.8906V22.9443C39.1829 23.6182 38.9876 24.1455 38.6035 24.5264C38.2194 24.9072 37.6839 25.0977 36.9971 25.0977C36.2939 25.0977 35.7568 24.9121 35.3857 24.541C35.0146 24.1667 34.8258 23.6344 34.8193 22.9443V17.8906H35.708V22.9102C35.708 23.3887 35.8089 23.7467 36.0107 23.9844C36.2158 24.2188 36.5446 24.3359 36.9971 24.3359C37.4528 24.3359 37.7816 24.2188 37.9834 23.9844C38.1885 23.7467 38.291 23.3887 38.291 22.9102V17.8906H39.1895ZM55.21 25H54.3115L51.4648 19.5215V25H50.5664V17.8906H51.4648L54.3213 23.3936V17.8906H55.21V25ZM66.7578 25V17.8906H68.4521C69.2822 17.8906 69.9268 18.151 70.3857 18.6719C70.8447 19.1895 71.0742 19.9186 71.0742 20.8594V22.0508C71.0742 22.9915 70.8415 23.7191 70.376 24.2334C69.9105 24.7445 69.235 25 68.3496 25H66.7578ZM67.6514 18.6621V24.2334H68.3691C68.9974 24.2334 69.4564 24.0544 69.7461 23.6963C70.0358 23.335 70.1839 22.8011 70.1904 22.0947V20.835C70.1904 20.0863 70.0456 19.5378 69.7559 19.1895C69.4694 18.8379 69.0348 18.6621 68.4521 18.6621H67.6514ZM85.6787 23.1445H83.2764L82.7246 25H81.8066L84.0967 17.8906H84.8633L87.1582 25H86.2402L85.6787 23.1445ZM83.5107 22.373H85.4492L84.4775 19.1406L83.5107 22.373ZM101.646 18.6621H99.7754V25H98.8818V18.6621H97.0166V17.8906H101.646V18.6621ZM113.628 25H112.734V17.8906H113.628V25ZM129.819 22.0703C129.819 23.0404 129.613 23.7874 129.199 24.3115C128.786 24.8356 128.198 25.0977 127.437 25.0977C126.704 25.0977 126.125 24.8438 125.698 24.3359C125.275 23.8249 125.055 23.1038 125.039 22.1729V20.835C125.039 19.8844 125.249 19.1406 125.669 18.6035C126.089 18.0632 126.675 17.793 127.427 17.793C128.175 17.793 128.758 18.0518 129.175 18.5693C129.595 19.0837 129.81 19.8193 129.819 20.7764V22.0703ZM128.926 20.8252C128.926 20.0732 128.802 19.515 128.555 19.1504C128.311 18.7826 127.935 18.5986 127.427 18.5986C126.935 18.5986 126.562 18.7842 126.309 19.1553C126.058 19.5264 125.931 20.0732 125.928 20.7959V22.0703C125.928 22.7962 126.053 23.3496 126.304 23.7305C126.558 24.1113 126.935 24.3018 127.437 24.3018C127.938 24.3018 128.309 24.126 128.55 23.7744C128.791 23.4229 128.916 22.8841 128.926 22.1582V20.8252ZM145.845 25H144.946L142.1 19.5215V25H141.201V17.8906H142.1L144.956 23.3936V17.8906H145.845V25Z" fill="white"/>
</svg>
