<svg width="250" height="115" viewBox="0 0 250 115" fill="none" xmlns="http://www.w3.org/2000/svg">
<path d="M24.1111 76.6045H20.7479V81H19.4969V71.0469H24.6785V72.127H20.7479V75.5312H24.1111V76.6045ZM48.0971 76.8984C48.0971 78.2565 47.8077 79.3024 47.2289 80.0361C46.6501 80.7699 45.8275 81.1367 44.7611 81.1367C43.7357 81.1367 42.9246 80.7812 42.3275 80.0703C41.7351 79.3548 41.4275 78.3454 41.4047 77.042V75.1689C41.4047 73.8382 41.6986 72.7969 42.2865 72.0449C42.8744 71.2884 43.6947 70.9102 44.7475 70.9102C45.7956 70.9102 46.6114 71.2725 47.1947 71.9971C47.7826 72.7171 48.0834 73.7471 48.0971 75.0869V76.8984ZM46.8461 75.1553C46.8461 74.1025 46.6729 73.321 46.3266 72.8105C45.9848 72.2956 45.4584 72.0381 44.7475 72.0381C44.0593 72.0381 43.5375 72.2979 43.182 72.8174C42.8311 73.3369 42.6534 74.1025 42.6488 75.1143V76.8984C42.6488 77.9147 42.8243 78.6895 43.1752 79.2227C43.5307 79.7559 44.0593 80.0225 44.7611 80.0225C45.463 80.0225 45.9825 79.7764 46.3197 79.2842C46.657 78.792 46.8324 78.0378 46.8461 77.0215V75.1553ZM71.3652 71.0469V78.1221C71.3561 79.0654 71.0827 79.8037 70.5449 80.3369C70.0072 80.8701 69.2575 81.1367 68.2959 81.1367C67.3115 81.1367 66.5596 80.877 66.04 80.3574C65.5205 79.8333 65.2562 79.0882 65.2471 78.1221V71.0469H66.4912V78.0742C66.4912 78.7441 66.6325 79.2454 66.915 79.5781C67.2021 79.9062 67.6624 80.0703 68.2959 80.0703C68.9339 80.0703 69.3942 79.9062 69.6768 79.5781C69.9639 79.2454 70.1074 78.7441 70.1074 78.0742V71.0469H71.3652ZM95.1939 81H93.9361L89.9508 73.3301V81H88.693V71.0469H89.9508L93.9498 78.751V71.0469H95.1939V81ZM112.761 81V71.0469H115.133C116.295 71.0469 117.197 71.4115 117.84 72.1406C118.483 72.8652 118.804 73.8861 118.804 75.2031V76.8711C118.804 78.1882 118.478 79.2067 117.826 79.9268C117.175 80.6423 116.229 81 114.989 81H112.761ZM114.012 72.127V79.9268H115.017C115.896 79.9268 116.539 79.6761 116.945 79.1748C117.35 78.6689 117.557 77.9215 117.567 76.9326V75.1689C117.567 74.1208 117.364 73.3529 116.958 72.8652C116.557 72.373 115.949 72.127 115.133 72.127H114.012ZM140.65 78.4023H137.287L136.514 81H135.229L138.435 71.0469H139.509L142.721 81H141.436L140.65 78.4023ZM137.615 77.3223H140.329L138.969 72.7969L137.615 77.3223ZM164.404 72.127H161.786V81H160.535V72.127H157.923V71.0469H164.404V72.127ZM182.579 81H181.328V71.0469H182.579V81ZM206.647 76.8984C206.647 78.2565 206.358 79.3024 205.779 80.0361C205.2 80.7699 204.378 81.1367 203.311 81.1367C202.286 81.1367 201.475 80.7812 200.878 80.0703C200.285 79.3548 199.977 78.3454 199.955 77.042V75.1689C199.955 73.8382 200.249 72.7969 200.837 72.0449C201.424 71.2884 202.245 70.9102 203.297 70.9102C204.346 70.9102 205.161 71.2725 205.745 71.9971C206.333 72.7171 206.633 73.7471 206.647 75.0869V76.8984ZM205.396 75.1553C205.396 74.1025 205.223 73.321 204.877 72.8105C204.535 72.2956 204.008 72.0381 203.297 72.0381C202.609 72.0381 202.087 72.2979 201.732 72.8174C201.381 73.3369 201.203 74.1025 201.199 75.1143V76.8984C201.199 77.9147 201.374 78.6895 201.725 79.2227C202.081 79.7559 202.609 80.0225 203.311 80.0225C204.013 80.0225 204.532 79.7764 204.87 79.2842C205.207 78.792 205.382 78.0378 205.396 77.0215V75.1553ZM230.483 81H229.225L225.239 73.3301V81H223.982V71.0469H225.239L229.238 78.751V71.0469H230.483V81Z" fill="white"/>
<path d="M21.9734 46.9375L26.4266 60.8594L30.8797 46.9375H33.6453V64H31.5008V57.3555L31.7 50.6992L27.2352 64H25.5945L21.1531 50.7461L21.3523 57.3555V64H19.2078V46.9375H21.9734ZM47.9164 59.5469H42.1508L40.8266 64H38.6234L44.1195 46.9375H45.9594L51.4672 64H49.2641L47.9164 59.5469ZM42.7133 57.6953H47.3656L45.0336 49.9375L42.7133 57.6953ZM64.6367 48.7891H60.1484V64H58.0039V48.7891H53.5273V46.9375H64.6367V48.7891ZM76.5758 59.5469H70.8102L69.4859 64H67.2828L72.7789 46.9375H74.6187L80.1266 64H77.9234L76.5758 59.5469ZM71.3727 57.6953H76.025L73.693 49.9375L71.3727 57.6953ZM97.6297 60.707L101.532 46.9375H103.887L98.5789 64H96.7039L91.407 46.9375H93.7508L97.6297 60.707ZM110.846 64H108.702V46.9375H110.846V64ZM117.008 64V46.9375H121.074C123.066 46.9375 124.613 47.5625 125.715 48.8125C126.816 50.0547 127.367 51.8047 127.367 54.0625V56.9219C127.367 59.1797 126.809 60.9258 125.691 62.1602C124.574 63.3867 122.953 64 120.828 64H117.008ZM119.152 48.7891V62.1602H120.875C122.383 62.1602 123.484 61.7305 124.18 60.8711C124.875 60.0039 125.23 58.7227 125.246 57.0273V54.0039C125.246 52.207 124.898 50.8906 124.203 50.0547C123.516 49.2109 122.473 48.7891 121.074 48.7891H119.152ZM135.357 64H133.212V46.9375H135.357V64ZM145.632 55.5039L149.124 46.9375H151.55L146.698 57.6367V64H144.554V57.6367L139.702 46.9375H142.14L145.632 55.5039ZM163.032 59.5469H157.266L155.942 64H153.739L159.235 46.9375H161.075L166.583 64H164.38L163.032 59.5469ZM157.829 57.6953H162.481L160.149 49.9375L157.829 57.6953ZM178.756 59.6875C178.756 58.8359 178.526 58.1836 178.065 57.7305C177.604 57.2773 176.772 56.8359 175.569 56.4062C174.366 55.9766 173.444 55.5273 172.803 55.0586C172.17 54.582 171.694 54.043 171.373 53.4414C171.061 52.832 170.905 52.1367 170.905 51.3555C170.905 50.0039 171.354 48.8906 172.252 48.0156C173.159 47.1406 174.342 46.7031 175.803 46.7031C176.803 46.7031 177.694 46.9297 178.475 47.3828C179.256 47.8281 179.858 48.4492 180.28 49.2461C180.702 50.043 180.912 50.918 180.912 51.8711H178.756C178.756 50.8164 178.502 50 177.995 49.4219C177.487 48.8438 176.756 48.5547 175.803 48.5547C174.936 48.5547 174.264 48.7969 173.787 49.2812C173.311 49.7656 173.073 50.4453 173.073 51.3203C173.073 52.0391 173.33 52.6406 173.846 53.125C174.362 53.6094 175.159 54.043 176.237 54.4258C177.916 54.9805 179.116 55.6641 179.834 56.4766C180.561 57.2891 180.924 58.3516 180.924 59.6641C180.924 61.0469 180.475 62.1562 179.577 62.9922C178.678 63.8203 177.455 64.2344 175.909 64.2344C174.916 64.2344 173.998 64.0195 173.155 63.5898C172.319 63.1523 171.659 62.543 171.174 61.7617C170.698 60.9727 170.459 60.0703 170.459 59.0547H172.616C172.616 60.1094 172.909 60.9297 173.495 61.5156C174.088 62.1016 174.893 62.3945 175.909 62.3945C176.854 62.3945 177.565 62.1523 178.041 61.668C178.518 61.1836 178.756 60.5234 178.756 59.6875ZM194.328 56.1133H188.293V62.1602H195.324V64H186.148V46.9375H195.207V48.7891H188.293V54.2734H194.328V56.1133ZM203.736 58.6211L203.959 60.5312L204.298 58.8438L207.029 46.9375H208.822L211.47 58.8438L211.81 60.5781L212.056 58.6094L214.142 46.9375H216.287L212.888 64H210.955L208.107 51.5664L207.931 50.5586L207.755 51.5664L204.802 64H202.857L199.47 46.9375H201.615L203.736 58.6211ZM228.601 59.5469H222.835L221.511 64H219.308L224.804 46.9375H226.644L232.152 64H229.948L228.601 59.5469ZM223.398 57.6953H228.05L225.718 49.9375L223.398 57.6953Z" fill="white"/>
</svg>
